<?xml version="1.0" encoding="utf-8"?>
<!-- Generator: Adobe Illustrator 16.0.0, SVG Export Plug-In . SVG Version: 6.00 Build 0)  -->
<!DOCTYPE svg PUBLIC "-//W3C//DTD SVG 1.1//EN" "http://www.w3.org/Graphics/SVG/1.1/DTD/svg11.dtd">
<svg version="1.1" id="Capa_1" xmlns="http://www.w3.org/2000/svg" xmlns:xlink="http://www.w3.org/1999/xlink" x="0px" y="0px"
	 width="800px" height="800px" viewBox="0 0 800 800" enable-background="new 0 0 800 800" xml:space="preserve">
<g>
	<path fill="#164FCE" d="M24.807,474.118V325.882h125.941v98.443c0,16.91,3.354,33.191,9.969,48.394l0.609,1.399H24.807z"/>
	<path fill="#164FCE" d="M25.807,326.882v146.236H159.8c-6.63-15.237-10.052-31.644-10.052-48.793v-97.443H25.807z"/>
	<path fill="#164FCE" d="M644.161,487.021v-1c0-6.563-5.34-11.903-11.903-11.903H377.659l0.608-1.399
		c6.614-15.203,9.968-31.485,9.968-48.394v-98.443h386.958v148.236h-91.322c-6.563,0-11.903,5.34-11.903,11.903v1H644.161z"/>
	<path fill="#164FCE" d="M683.871,473.118h90.322V326.882H389.235v97.443c0,17.149-3.422,33.556-10.051,48.793h253.073
		c7.128,0,12.903,5.777,12.903,12.903h25.807C670.968,478.896,676.743,473.118,683.871,473.118z"/>
	<path fill="#ED1F34" d="M24.807,646.161V497.925h150.661l0.3,0.396c3.946,5.204,8.348,10.207,13.082,14.869
		c19.655,19.37,47.05,35.146,77.136,44.422c1.136,0.351,2.316,0.528,3.507,0.528s2.371-0.178,3.508-0.528
		c30.088-9.277,57.482-25.053,77.136-44.421c4.725-4.653,9.126-9.656,13.082-14.87l0.3-0.396h268.739
		c6.563,0,11.903-5.34,11.903-11.903v-1h27.807v1c0,6.563,5.34,11.903,11.903,11.903h91.322v148.236H24.807z"/>
	<path fill="#ED1F34" d="M683.871,498.925c-7.128,0-12.903-5.777-12.903-12.903h-25.807c0,7.126-5.775,12.903-12.903,12.903H364.016
		c-3.95,5.206-8.337,10.211-13.177,14.978c-19.768,19.48-47.307,35.342-77.543,44.665c-1.239,0.382-2.521,0.572-3.802,0.572
		s-2.563-0.19-3.802-0.572c-30.237-9.322-57.776-25.185-77.543-44.665c-4.839-4.767-9.229-9.771-13.177-14.978H25.807v146.236
		h748.387V498.925H683.871z"/>
	<path fill="#FFFFFF" d="M149.748,301.075v-47.312c0-7.126,5.775-12.903,12.903-12.903h213.681c7.128,0,12.903,5.777,12.903,12.903
		v47.312h384.958V154.839H25.807v146.236H149.748z"/>
	<path d="M787.097,129.032H12.903C5.775,129.032,0,134.81,0,141.936v516.129c0,7.126,5.775,12.903,12.903,12.903h774.193
		c7.128,0,12.903-5.777,12.903-12.903V141.936C800,134.81,794.225,129.032,787.097,129.032z M774.193,154.839v146.236H389.235
		v-47.312c0-7.126-5.775-12.903-12.903-12.903H162.651c-7.128,0-12.903,5.777-12.903,12.903v47.312H25.807V154.839H774.193z
		 M363.429,424.325c0,14.234-2.79,26.796-7.456,37.848c-18.297,43.327-65.445,63.476-86.479,70.512
		c-21.037-7.036-68.186-27.185-86.48-70.512c-4.668-11.052-7.457-23.611-7.457-37.848V266.667h187.875v157.659H363.429z
		 M159.8,473.118H25.807V326.882h123.941v97.443C149.748,441.475,153.17,457.881,159.8,473.118z M25.807,645.161V498.925h149.163
		c3.95,5.206,8.339,10.211,13.177,14.978c19.768,19.48,47.307,35.342,77.543,44.665c1.239,0.382,2.521,0.572,3.802,0.572
		s2.563-0.19,3.802-0.572c30.236-9.322,57.775-25.185,77.543-44.665c4.84-4.767,9.227-9.771,13.177-14.978h268.244
		c7.128,0,12.903-5.777,12.903-12.903s-5.775-12.903-12.903-12.903H379.185c6.629-15.237,10.051-31.644,10.051-48.793v-97.443
		h384.958v146.236h-90.322c-7.128,0-12.903,5.777-12.903,12.903s5.775,12.903,12.903,12.903h90.322v146.236H25.807z"/>
	<path fill="#ED1F34" d="M205.613,467.33c-7.182-2.762-14.731-4.162-22.437-4.162l-0.165,0.005h-0.663l-0.258-0.611
		c-5-11.843-7.535-24.707-7.535-38.236V265.667h189.875v158.659c0,13.532-2.535,26.396-7.535,38.236l-0.258,0.611h-0.686
		c0,0-0.113-0.004-0.116-0.004c-7.739,0-15.284,1.4-22.463,4.161l-0.766,0.294l-0.438-0.693
		c-11.195-17.709-29.419-29.904-49.999-33.458l-0.906-0.156l0.08-0.916c0.03-0.346,0.053-0.692,0.053-1.046v-39.876h27.143
		c6.563,0,11.903-5.34,11.903-11.903s-5.34-11.903-11.903-11.903h-27.143V342.99h12.134c6.563,0,11.903-5.34,11.903-11.903
		s-5.34-11.903-11.903-11.903h-12.134v-19.025c0-6.563-5.34-11.903-11.903-11.903s-11.903,5.34-11.903,11.903v19.025h-12.135
		c-6.563,0-11.903,5.34-11.903,11.903s5.339,11.903,11.903,11.903h12.135v24.682h-27.144c-6.563,0-11.903,5.34-11.903,11.903
		s5.34,11.903,11.903,11.903h27.144v39.876c0,0.354,0.022,0.7,0.053,1.046l0.08,0.916l-0.906,0.156
		c-20.578,3.552-38.801,15.747-49.998,33.458l-0.438,0.693L205.613,467.33z"/>
	<path fill="#ED1F34" d="M363.429,266.667H175.554v157.659c0,14.234,2.791,26.796,7.457,37.848c0.055,0,0.11-0.005,0.165-0.005
		c8.038,0,15.718,1.507,22.796,4.229c11.126-17.6,29.366-30.231,50.673-33.909c-0.033-0.374-0.057-0.75-0.057-1.133v-38.876h-26.144
		c-7.128,0-12.903-5.777-12.903-12.903s5.775-12.903,12.903-12.903h26.144V343.99h-11.135c-7.127,0-12.903-5.777-12.903-12.903
		s5.775-12.903,12.903-12.903h11.135v-18.025c0-7.126,5.775-12.903,12.903-12.903c7.127,0,12.903,5.777,12.903,12.903v18.025h11.134
		c7.128,0,12.903,5.777,12.903,12.903s-5.775,12.903-12.903,12.903h-11.134v22.682h26.143c7.128,0,12.903,5.777,12.903,12.903
		s-5.775,12.903-12.903,12.903h-26.143v38.876c0,0.383-0.024,0.759-0.057,1.133c21.308,3.68,39.548,16.31,50.674,33.909
		c7.079-2.722,14.76-4.229,22.797-4.229c0.056,0,0.108,0.005,0.164,0.005c4.667-11.052,7.456-23.611,7.456-37.848V266.667z"/>
	<path fill="#FFFFFF" d="M282.338,432.487c0.033-0.374,0.057-0.751,0.057-1.133v-38.876h26.143c7.128,0,12.903-5.777,12.903-12.903
		s-5.775-12.903-12.903-12.903h-26.143V343.99h11.134c7.128,0,12.903-5.777,12.903-12.903s-5.775-12.903-12.903-12.903h-11.134
		v-18.025c0-7.126-5.776-12.903-12.903-12.903c-7.128,0-12.903,5.777-12.903,12.903v18.025h-11.135
		c-7.127,0-12.903,5.777-12.903,12.903s5.775,12.903,12.903,12.903h11.135v22.682h-26.144c-7.128,0-12.903,5.777-12.903,12.903
		s5.775,12.903,12.903,12.903h26.144v38.876c0,0.382,0.024,0.759,0.057,1.133c4.177-0.722,8.461-1.133,12.847-1.133
		S278.161,431.765,282.338,432.487z"/>
	<path fill="#164FCE" d="M269.174,533.633c-19.982-6.684-68.469-26.989-87.085-71.071l-0.586-1.389h1.508l0.165-0.005
		c7.68,0,15.208,1.348,22.391,4.007c11.531-17.814,30.04-30.069,50.908-33.673c4.407-0.762,8.787-1.147,13.017-1.147
		s8.61,0.386,13.017,1.147c20.869,3.602,39.378,15.855,50.909,33.673c7.182-2.659,14.71-4.007,22.39-4.007l1.562,0.068l-0.477,1.325
		c-18.614,44.082-67.101,64.388-87.083,71.071l-0.317,0.106L269.174,533.633z"/>
	<path fill="#164FCE" d="M333.012,466.396c-11.126-17.602-29.364-30.231-50.674-33.909c-4.177-0.722-8.461-1.133-12.846-1.133
		s-8.669,0.411-12.847,1.133c-21.307,3.68-39.547,16.31-50.673,33.909c-7.078-2.722-14.76-4.229-22.796-4.229
		c-0.055,0-0.11,0.005-0.165,0.005c18.297,43.327,65.445,63.476,86.481,70.512c21.036-7.036,68.184-27.185,86.479-70.512
		c-0.055,0-0.108-0.005-0.163-0.005C347.771,462.168,340.09,463.675,333.012,466.396z"/>
</g>
</svg>
